<svg width="32" height="32" viewBox="0 0 32 32" fill="none" xmlns="http://www.w3.org/2000/svg">
<path d="M29.5889 27.8403L27.3413 9.157C27.2874 8.70526 27.111 8.27685 26.8312 7.9181C26.5515 7.55936 26.1789 7.28393 25.7539 7.1216L20.3604 5.05295L19.6353 2.87231C19.5988 2.77477 19.5343 2.69021 19.4498 2.6293C19.3653 2.56838 19.2647 2.53384 19.1606 2.53003H12.6755C12.5806 2.53245 12.4882 2.56078 12.4082 2.61194C12.3282 2.6631 12.2637 2.73516 12.2217 2.82031L11.2007 5.03009C10.0719 5.37903 8.96205 5.78671 7.87574 6.25146C6.48966 6.93455 5.37196 7.24793 4.65451 8.50677L2.45044 12.6611C2.22107 13.0943 2.10097 13.577 2.10059 14.0671V20.5525C2.10105 21.0122 2.20669 21.4658 2.40942 21.8784L5.95068 29.0659C6.01341 29.1934 6.10259 29.3061 6.21228 29.3964C6.32196 29.4867 6.44964 29.5526 6.5868 29.5896C6.72396 29.6267 6.86744 29.6341 7.00769 29.6114C7.14794 29.5887 7.28173 29.5363 7.40015 29.4578L9.54919 28.0337C10.2778 28.6694 12.229 30.1274 14.6743 29.9893C14.7771 29.9833 14.8756 29.9458 14.9563 29.8818C15.037 29.8178 15.0959 29.7304 15.125 29.6316L15.8337 27.231L16.8481 29.6907C16.886 29.7822 16.9501 29.8605 17.0324 29.9155C17.1147 29.9706 17.2115 30 17.3106 30C19.0834 29.9911 20.7811 29.2828 22.0347 28.0292C23.2883 26.7755 23.9965 25.0778 24.0053 23.3049L24.0054 23.1972L25.3208 28.9407C25.3527 29.0759 25.4123 29.2031 25.4957 29.3141C25.5792 29.4252 25.6847 29.5178 25.8057 29.5861C25.9267 29.6544 26.0605 29.6969 26.1988 29.711C26.337 29.725 26.4766 29.7103 26.6089 29.6677L28.9087 28.908C29.1275 28.8353 29.3146 28.6894 29.4384 28.495C29.5623 28.3005 29.6154 28.0693 29.5889 27.8403ZM19.4224 5.40088L17.8779 8.52978L16.5025 7.4639L18.99 4.10153L19.4224 5.40088ZM17.2956 4.70996H14.4633L13.6545 3.53003H18.1686L17.2956 4.70996ZM16.5558 5.70996L15.8254 6.697L15.1488 5.70994L16.5558 5.70996ZM12.7726 4.01217L15.1157 7.43097L13.634 8.4497L12.1909 5.271L12.7726 4.01217ZM6.8479 28.6243L3.3064 21.4365C3.17124 21.1614 3.10084 20.859 3.10059 20.5525V14.0671C3.10084 13.7404 3.18087 13.4187 3.33374 13.1299L5.53784 8.97558C5.98894 8.16458 6.72981 7.94755 7.57541 7.48974V18.2834L6.86716 15.7454C6.82943 15.62 6.74404 15.5144 6.62932 15.4513C6.51461 15.3881 6.37971 15.3725 6.25359 15.4077C6.12748 15.443 6.0202 15.5262 5.9548 15.6397C5.8894 15.7531 5.87109 15.8877 5.90379 16.0145L8.47324 25.2204L6.62649 26.2258C6.56881 26.2572 6.51788 26.2997 6.4766 26.3507C6.43533 26.4018 6.40452 26.4605 6.38593 26.5235C6.34838 26.6507 6.3629 26.7876 6.42629 26.9041C6.48969 27.0205 6.59675 27.1071 6.72394 27.1446C6.85114 27.1822 6.98803 27.1676 7.10452 27.1042L8.74914 26.2089L9.02129 27.184L6.8479 28.6243ZM14.2695 28.9978C12.1409 28.9622 10.4399 27.5017 10.0454 27.1345L8.57544 21.8669V7.04181C9.65277 6.58996 10.7079 6.23288 11.4264 6.00754L12.9702 9.40674C13.0008 9.47289 13.0455 9.53159 13.1011 9.57878C13.1566 9.62598 13.2218 9.66053 13.292 9.68006C13.3623 9.69958 13.4359 9.70362 13.5079 9.69187C13.5798 9.68013 13.6483 9.6529 13.7087 9.61205L15.3312 8.4964L15.2557 25.6568L14.2695 28.9978ZM21.3369 27.3315C20.3522 28.3221 19.0357 28.9131 17.6411 28.9907L16.2558 25.6321L16.331 8.59637L17.7495 9.69531C17.8083 9.74019 17.8762 9.77154 17.9485 9.78715C18.0208 9.80276 18.0956 9.80223 18.1677 9.7856C18.2397 9.76898 18.3072 9.73667 18.3653 9.69097C18.4234 9.64527 18.4708 9.58732 18.5039 9.52123L20.209 6.06588L23.0054 7.13846V23.3049C23.0073 24.0531 22.8608 24.7942 22.5744 25.4853C22.288 26.1765 21.8674 26.804 21.3369 27.3315ZM26.2954 28.718L24.0054 18.7188V7.522L25.3955 8.05517C25.6505 8.15261 25.8741 8.31789 26.042 8.53317C26.2099 8.74845 26.3157 9.00553 26.3481 9.27661L28.3947 26.2874L26.769 26.6948C26.6526 26.7264 26.5514 26.7988 26.484 26.899C26.4167 26.9991 26.3878 27.1201 26.4025 27.2399C26.4172 27.3596 26.4746 27.4701 26.5642 27.5509C26.6538 27.6317 26.7695 27.6775 26.8901 27.6799C26.8699 27.7411 28.4816 27.273 28.5151 27.2885L28.5957 27.9583L26.2954 28.718Z" fill="#1D2939"/>
<path d="M21.7822 12.4866H18.0537C17.988 12.4866 17.923 12.4995 17.8623 12.5246C17.8017 12.5497 17.7466 12.5865 17.7001 12.633C17.6537 12.6794 17.6169 12.7345 17.5917 12.7952C17.5666 12.8559 17.5537 12.9209 17.5537 12.9866V16.1687C17.5537 16.253 17.575 16.3359 17.6157 16.4097C17.6563 16.4836 17.7149 16.546 17.7861 16.5911L19.5537 17.71C19.6338 17.7606 19.7265 17.7876 19.8213 17.7876C19.8842 17.8656 22.0051 16.7918 22.1074 16.7657C22.1958 16.724 22.2701 16.6574 22.3211 16.574C22.372 16.4906 22.3974 16.3941 22.394 16.2964L22.2817 12.9697C22.2775 12.8401 22.223 12.7172 22.1297 12.6271C22.0365 12.5369 21.9119 12.4865 21.7822 12.4866ZM19.8569 16.7185L18.5537 15.8936V13.4866H21.2988L21.3838 16.0007L19.8569 16.7185Z" fill="#1D2939"/>
<path d="M13.8019 11.5142C13.9328 11.5116 14.0575 11.4578 14.1492 11.3643C14.2409 11.2708 14.2922 11.1451 14.2922 11.0141C14.2922 10.8832 14.2409 10.7575 14.1492 10.664C14.0575 10.5705 13.9328 10.5167 13.8019 10.5142C13.6709 10.5167 13.5462 10.5705 13.4546 10.664C13.3629 10.7575 13.3115 10.8832 13.3115 11.0142C13.3115 11.1451 13.3629 11.2708 13.4546 11.3643C13.5463 11.4578 13.671 11.5116 13.8019 11.5142Z" fill="#1D2939"/>
<path d="M13.8021 13.6382C13.6711 13.6407 13.5464 13.6944 13.4546 13.7879C13.3629 13.8814 13.3115 14.0072 13.3115 14.1382C13.3115 14.2692 13.3629 14.3949 13.4547 14.4884C13.5464 14.5819 13.6712 14.6357 13.8021 14.6382C13.9331 14.6357 14.0579 14.5819 14.1496 14.4884C14.2413 14.3949 14.2927 14.2692 14.2927 14.1382C14.2927 14.0072 14.2413 13.8814 14.1496 13.7879C14.0578 13.6944 13.9331 13.6407 13.8021 13.6382Z" fill="#1D2939"/>
<path d="M13.8021 16.7622C13.6711 16.7647 13.5464 16.8185 13.4546 16.912C13.3629 17.0055 13.3115 17.1312 13.3115 17.2622C13.3115 17.3932 13.3629 17.519 13.4547 17.6125C13.5464 17.706 13.6712 17.7597 13.8021 17.7622C13.9331 17.7597 14.0579 17.7059 14.1496 17.6124C14.2413 17.5189 14.2927 17.3932 14.2927 17.2622C14.2927 17.1312 14.2413 17.0054 14.1496 16.912C14.0578 16.8185 13.9331 16.7647 13.8021 16.7622Z" fill="#1D2939"/>
<path d="M13.8019 19.8862C13.6709 19.8888 13.5462 19.9426 13.4546 20.0361C13.3629 20.1296 13.3115 20.2553 13.3115 20.3862C13.3115 20.5172 13.3629 20.6429 13.4546 20.7364C13.5463 20.8299 13.671 20.8837 13.8019 20.8862C13.9328 20.8837 14.0575 20.8299 14.1492 20.7364C14.2409 20.6429 14.2922 20.5172 14.2922 20.3862C14.2922 20.2553 14.2409 20.1296 14.1492 20.0361C14.0575 19.9426 13.9328 19.8888 13.8019 19.8862Z" fill="#1D2939"/>
<path d="M13.8019 23.0103C13.6709 23.0128 13.5462 23.0666 13.4546 23.1601C13.3629 23.2536 13.3115 23.3793 13.3115 23.5103C13.3115 23.6412 13.3629 23.7669 13.4546 23.8604C13.5463 23.9539 13.671 24.0077 13.8019 24.0103C13.9328 24.0077 14.0575 23.9539 14.1492 23.8604C14.2409 23.7669 14.2922 23.6412 14.2922 23.5102C14.2922 23.3793 14.2409 23.2536 14.1492 23.1601C14.0575 23.0666 13.9328 23.0128 13.8019 23.0103Z" fill="#1D2939"/>
</svg>
