<svg width="32" height="32" viewBox="0 0 32 32" fill="none" xmlns="http://www.w3.org/2000/svg">
<path d="M10.5953 12.5754C10.8714 12.2794 11.0648 11.9161 11.1564 11.5219C11.2479 11.1277 11.2343 10.7163 11.1169 10.329C10.9995 9.94174 10.7825 9.59205 10.4875 9.31499C10.1925 9.03793 9.82986 8.84321 9.43596 8.75032L9.43604 6.43732C9.97452 6.31441 10.4489 5.99746 10.7685 5.547C11.0881 5.09653 11.2306 4.54412 11.1688 3.99526C11.1069 3.4464 10.8451 2.93954 10.4332 2.5715C10.0214 2.20345 9.4884 2 8.93607 2C8.38373 2 7.85075 2.20345 7.4389 2.5715C7.02706 2.93954 6.76521 3.4464 6.70337 3.99526C6.64153 4.54412 6.78402 5.09653 7.10365 5.547C7.42327 5.99746 7.89761 6.31441 8.4361 6.43732L8.43604 8.75032C8.04183 8.84353 7.67903 9.03866 7.38395 9.31616C7.08886 9.59367 6.87184 9.94381 6.75462 10.3316C6.63739 10.7193 6.62408 11.131 6.71599 11.5255C6.80791 11.92 7.00184 12.2835 7.27838 12.5795L3.0791 19.8525C2.47861 20.8786 2.16211 22.0461 2.16211 23.235C2.16211 24.4239 2.47861 25.5913 3.0791 26.6174C5.57019 31.1012 12.305 31.1047 14.7969 26.6173C15.3974 25.5912 15.7139 24.4238 15.7139 23.2349C15.7139 22.046 15.3974 20.8786 14.7969 19.8525L10.5953 12.5754ZM7.68702 4.24898C7.69068 3.92013 7.82389 3.60599 8.05774 3.37474C8.29158 3.1435 8.60718 3.0138 8.93606 3.01381C9.26493 3.01381 9.58053 3.14352 9.81436 3.37477C10.0482 3.60602 10.1814 3.92016 10.1851 4.24901C10.1814 4.57786 10.0482 4.892 9.81434 5.12325C9.5805 5.35449 9.26489 5.48418 8.93602 5.48418C8.60715 5.48418 8.29155 5.35447 8.05771 5.12322C7.82388 4.89197 7.69067 4.57783 7.68702 4.24898ZM7.63819 10.9897C7.63951 10.792 7.68613 10.5973 7.77447 10.4205C7.86281 10.2437 7.99051 10.0895 8.14776 9.9697C8.30501 9.84995 8.48763 9.76784 8.68157 9.72968C8.87551 9.69153 9.07562 9.69834 9.26652 9.74961C9.45741 9.80088 9.63402 9.89523 9.78275 10.0254C9.93149 10.1556 10.0484 10.3181 10.1245 10.5006C10.2006 10.683 10.2339 10.8804 10.2217 11.0777C10.2096 11.275 10.1524 11.4669 10.0545 11.6386C9.95165 11.4305 9.79258 11.2553 9.5953 11.1329C9.39802 11.0105 9.17041 10.9458 8.93825 10.946C8.72008 10.9448 8.50552 11.0016 8.31657 11.1107C8.12762 11.2197 7.97109 11.3771 7.86305 11.5666L7.81901 11.6429C7.70201 11.445 7.63961 11.2196 7.63819 10.9897ZM13.9307 26.1174C11.8334 29.9331 6.04272 29.9351 3.94534 26.1173C3.43346 25.2429 3.16366 24.248 3.16366 23.2349C3.16366 22.2217 3.43346 21.2268 3.94534 20.3525L8.72925 12.0666C8.75038 12.03 8.7808 11.9995 8.81745 11.9783C8.8541 11.9572 8.89567 11.946 8.938 11.946C8.98032 11.946 9.0219 11.9572 9.05854 11.9783C9.09519 11.9995 9.12561 12.03 9.14675 12.0666L13.9307 20.3525C14.4426 21.2269 14.7124 22.2218 14.7123 23.235C14.7123 24.2481 14.4426 25.243 13.9307 26.1174Z" fill="#1D2939"/>
<path d="M9.74858 15.2657C9.66533 15.1247 9.54678 15.0079 9.40461 14.9268C9.26245 14.8456 9.10159 14.803 8.9379 14.803C8.77421 14.803 8.61335 14.8457 8.47119 14.9268C8.32903 15.008 8.21048 15.1248 8.12724 15.2657L4.89311 20.8675C3.05734 23.8591 5.42832 27.9682 8.93811 27.8735C12.4474 27.9668 14.8196 23.8603 12.9831 20.8674L9.74858 15.2657ZM12.117 25.0381C10.8278 27.4576 7.04818 27.4582 5.75908 25.038C5.43321 24.4813 5.26148 23.8478 5.26152 23.2027C5.26156 22.5576 5.43338 21.9242 5.75932 21.3675L8.93803 15.8616L12.117 21.3675C12.4429 21.9242 12.6147 22.5577 12.6147 23.2028C12.6147 23.8479 12.4429 24.4814 12.117 25.0381Z" fill="#1D2939"/>
<path d="M28.921 19.8525L24.7193 12.5755C25.0012 12.2819 25.1998 11.9185 25.2948 11.5227C25.3897 11.127 25.3775 10.713 25.2595 10.3235C25.1415 9.934 24.9218 9.58295 24.6232 9.30644C24.3245 9.02994 23.9576 8.83796 23.5601 8.75024V6.43724C24.0562 6.32402 24.4992 6.046 24.8168 5.64856C25.1345 5.25112 25.308 4.75773 25.3091 4.24895C25.2171 1.28187 20.9062 1.27286 20.8111 4.249C20.8122 4.75777 20.9858 5.25115 21.3034 5.64858C21.6211 6.04601 22.0641 6.32402 22.5601 6.43724V8.75024C22.1624 8.83831 21.7953 9.03069 21.4966 9.30762C21.1979 9.58454 20.9783 9.93602 20.8604 10.3259C20.7425 10.7158 20.7306 11.1301 20.8258 11.5261C20.9211 11.9222 21.1201 12.2857 21.4024 12.5794L17.2032 19.8525C16.6094 20.8809 16.2969 22.0475 16.2969 23.235C16.2969 24.4225 16.6095 25.5891 17.2033 26.6175C17.7971 27.6459 18.6511 28.4999 19.6795 29.0937C20.708 29.6874 21.8746 30 23.0621 29.9999C28.1722 30.1056 31.5689 24.2252 28.921 19.8525ZM21.8111 4.24893C21.8148 3.92008 21.948 3.60594 22.1818 3.3747C22.4157 3.14345 22.7313 3.01376 23.0601 3.01376C23.389 3.01377 23.7046 3.14347 23.9384 3.37472C24.1723 3.60597 24.3055 3.92011 24.3091 4.24897C24.3055 4.57782 24.1723 4.89195 23.9384 5.1232C23.7046 5.35444 23.389 5.48414 23.0601 5.48413C22.7312 5.48413 22.4156 5.35443 22.1818 5.12317C21.948 4.89192 21.8148 4.57778 21.8111 4.24893ZM21.7623 10.9897C21.7636 10.792 21.8102 10.5973 21.8985 10.4204C21.9869 10.2436 22.1146 10.0893 22.2718 9.96957C22.4291 9.8498 22.6117 9.76768 22.8057 9.72953C22.9997 9.69138 23.1998 9.69821 23.3907 9.7495C23.5816 9.80078 23.7582 9.89516 23.9069 10.0254C24.0557 10.1556 24.1726 10.3182 24.2487 10.5006C24.3247 10.6831 24.358 10.8805 24.3458 11.0778C24.3336 11.2751 24.2764 11.467 24.1784 11.6388C24.0751 11.4304 23.9156 11.2551 23.7179 11.1326C23.5201 11.0102 23.2921 10.9456 23.0595 10.946C22.8269 10.9464 22.5991 11.0119 22.4018 11.1351C22.2045 11.2582 22.0456 11.4341 21.9431 11.6428C21.8261 11.445 21.7637 11.2196 21.7623 10.9897ZM28.0548 26.1174C25.9574 29.9333 20.1668 29.9349 18.0694 26.1173C17.5576 25.2429 17.2877 24.248 17.2877 23.2349C17.2877 22.2217 17.5576 21.2268 18.0694 20.3525L22.8533 12.0666C22.8745 12.0299 22.9049 11.9995 22.9415 11.9783C22.9782 11.9571 23.0197 11.946 23.0621 11.946C23.1044 11.946 23.146 11.9571 23.1826 11.9783C23.2193 11.9995 23.2497 12.0299 23.2708 12.0666L28.0548 20.3525C28.5666 21.2268 28.8364 22.2217 28.8364 23.2349C28.8364 24.2481 28.5666 25.243 28.0548 26.1174Z" fill="#1D2939"/>
<path d="M23.8728 15.2657C23.7896 15.1247 23.671 15.0079 23.5289 14.9268C23.3867 14.8456 23.2258 14.803 23.0621 14.803C22.8985 14.803 22.7376 14.8457 22.5954 14.9268C22.4533 15.008 22.3347 15.1248 22.2515 15.2657L19.0171 20.8675C17.1813 23.859 19.5526 27.9682 23.0624 27.8735C26.5717 27.9669 28.9435 23.8604 27.1071 20.8674L23.8728 15.2657ZM26.2412 25.0381C24.952 27.4576 21.1724 27.4582 19.8833 25.0381C19.5574 24.4813 19.3856 23.8479 19.3856 23.2028C19.3856 22.5577 19.5574 21.9242 19.8833 21.3675L23.0623 15.8616L26.241 21.3675C26.5669 21.9242 26.7387 22.5577 26.7388 23.2028C26.7388 23.8479 26.5671 24.4814 26.2412 25.0381Z" fill="#1D2939"/>
</svg>
