<svg width="32" height="32" viewBox="0 0 32 32" fill="none" xmlns="http://www.w3.org/2000/svg">
<path d="M29.564 25.4963C29.0872 21.4171 27.6076 11.5663 24.0053 6.12287C24.0435 6.05219 24.0709 3.76099 24.0709 3.76099C24.0704 3.35849 23.9103 2.9726 23.6258 2.68797C23.3412 2.40333 22.9553 2.2432 22.5528 2.24268H9.19295C8.79045 2.2432 8.40459 2.40334 8.12 2.68797C7.83541 2.97261 7.67534 3.3585 7.67489 3.761C7.67489 3.761 7.68689 5.94506 7.69192 5.97353C6.60522 8.2694 3.66314 15.2347 2.43954 25.5308C2.37011 26.1008 2.49587 26.6775 2.7963 27.1668C3.09673 27.6562 3.55411 28.0293 4.09383 28.2254C7.88479 29.572 11.8799 30.2536 15.9029 30.24C19.988 30.2394 24.0432 29.5425 27.8941 28.1792C28.4369 27.9898 28.8985 27.6204 29.2023 27.1323C29.5061 26.6443 29.6338 26.067 29.564 25.4963ZM23.0709 3.761V5.38918H21.1075V3.24268H22.5528C22.6902 3.24285 22.8219 3.29753 22.919 3.3947C23.0162 3.49187 23.0708 3.62361 23.0709 3.761ZM19.3463 5.38918V3.24268H20.1075V5.38918H19.3463ZM11.6378 5.38918V3.24268H12.1295V5.38918H11.6378ZM13.1295 5.38918V3.24268H18.3463V5.38918H13.1295ZM8.67489 3.761C8.675 3.62361 8.72961 3.49188 8.82673 3.39471C8.92386 3.29754 9.05556 3.24287 9.19295 3.24269H10.6378V5.38919H8.67489V3.761ZM27.5621 27.2361C20.0864 29.8962 11.9248 29.914 4.43758 27.2864C4.10965 27.1672 3.83177 26.9405 3.64927 26.6431C3.46677 26.3457 3.39043 25.9953 3.4327 25.6489C4.64123 15.4758 7.54177 8.62546 8.60128 6.38916H9.51137C8.77058 8.33835 7.51201 11.9953 7.16854 15.1575C7.16106 15.2229 7.1666 15.2892 7.18483 15.3526C7.20307 15.4159 7.23364 15.475 7.27479 15.5264C7.31595 15.5779 7.36686 15.6207 7.42462 15.6525C7.48238 15.6842 7.54584 15.7042 7.61135 15.7113C7.67686 15.7184 7.74313 15.7125 7.80635 15.6939C7.86957 15.6753 7.92849 15.6444 7.97973 15.603C8.03097 15.5615 8.07351 15.5104 8.1049 15.4524C8.1363 15.3945 8.15594 15.3309 8.16268 15.2654C8.51623 12.0108 9.88842 8.17453 10.5828 6.38916H12.3276C11.8621 7.72177 11.2304 10.5774 10.777 16.6712C10.7674 16.8032 10.8106 16.9337 10.8971 17.034C10.9836 17.1342 11.1064 17.196 11.2385 17.2059C11.3705 17.2157 11.5011 17.1727 11.6015 17.0864C11.7019 17.0001 11.7639 16.8774 11.774 16.7454C12.285 9.88048 13.0088 7.31148 13.3957 6.38918H18.3677C18.3809 6.41283 18.3934 6.4323 18.4068 6.459C18.9435 7.44606 19.8614 10.1196 19.9854 16.9363C19.9898 17.0675 20.0457 17.1918 20.1409 17.2823C20.2361 17.3727 20.3631 17.4221 20.4944 17.4197C20.6257 17.4173 20.7508 17.3634 20.8426 17.2696C20.9345 17.1757 20.9858 17.0495 20.9854 16.9182C20.8748 10.8388 20.1438 7.84975 19.485 6.38918H21.2866C22.7814 10.6473 23.6137 13.8534 23.5157 14.9954C23.5101 15.0608 23.5174 15.1267 23.5372 15.1892C23.557 15.2518 23.5889 15.3099 23.6312 15.3602C23.6734 15.4104 23.7252 15.4518 23.7835 15.482C23.8417 15.5123 23.9054 15.5307 23.9708 15.5364C25.658 15.7191 22.9581 8.31788 22.3464 6.38917H22.9734C26.5986 11.5691 28.0938 21.5296 28.5709 25.6123C28.6098 25.957 28.5314 26.3047 28.3484 26.5993C28.1654 26.894 27.8883 27.1183 27.5621 27.2361Z" fill="#1D2939"/>
</svg>
