<svg width="32" height="32" viewBox="0 0 32 32" fill="none" xmlns="http://www.w3.org/2000/svg">
<path d="M29.9671 24.0049L27.9749 10.4529C27.7933 9.20435 26.2981 6.70295 26.2981 6.70295V4.58789C26.2977 4.24436 26.161 3.91504 25.918 3.67216C25.6751 3.42927 25.3458 3.29264 25.0022 3.29224H6.97001C6.62651 3.29265 6.2972 3.42929 6.0543 3.67218C5.81141 3.91507 5.67477 4.24439 5.67436 4.58789V6.95667C4.8362 8.00419 4.28667 9.25276 4.08036 10.5784L2.04229 23.9658C1.96878 24.4459 1.99356 24.9359 2.11512 25.4061C2.23669 25.8763 2.4525 26.3169 2.74947 26.7011C3.04645 27.0854 3.41839 27.4053 3.84274 27.6415C4.26708 27.8777 4.73499 28.0253 5.21807 28.0752L11.1053 28.6875C12.0261 28.7859 12.9493 28.5238 13.681 27.9562C14.4127 27.3885 14.8961 26.5595 15.0296 25.6431L15.9971 18.9893L17.1346 26.0359C17.2654 26.8401 17.7097 27.5596 18.3702 28.0367C19.0307 28.5139 19.8534 28.7096 20.658 28.5811L27.4217 27.4844C28.2163 27.3516 28.9274 26.9132 29.403 26.263C29.8787 25.6128 30.0811 24.8024 29.9671 24.0049ZM6.67436 4.58789C6.67443 4.5095 6.7056 4.43434 6.76103 4.37891C6.81646 4.32347 6.89162 4.2923 6.97001 4.29224H25.0022C25.0807 4.2923 25.1559 4.32346 25.2113 4.37888C25.2668 4.43431 25.298 4.50948 25.2981 4.58789V6.49H18.7395C18.4182 5.90484 18.0671 5.33647 17.6878 4.78711C17.6099 4.68184 17.4938 4.61132 17.3645 4.5907C17.2351 4.57008 17.1029 4.60101 16.9961 4.67685C16.8893 4.75268 16.8166 4.86737 16.7934 4.99627C16.7703 5.12517 16.7986 5.258 16.8724 5.36624C16.8815 5.37912 17.1929 5.82424 17.5864 6.48999H14.4524C14.7064 6.11523 14.9827 5.7561 15.2798 5.41455C15.3663 5.31631 15.4108 5.18808 15.4038 5.05738C15.3969 4.92668 15.3389 4.80393 15.2425 4.71546C15.146 4.62699 15.0187 4.57986 14.8879 4.58418C14.7571 4.5885 14.6332 4.64392 14.5427 4.73855C14.063 5.28429 13.631 5.87026 13.2516 6.49H6.67436V4.58789ZM27.261 26.4973L20.4983 27.5938C20.2295 27.6375 19.9547 27.6277 19.6896 27.565C19.4246 27.5023 19.1745 27.3879 18.9538 27.2284C18.733 27.0689 18.5459 26.8674 18.4031 26.6355C18.2604 26.4035 18.1648 26.1457 18.1219 25.8767L16.9832 18.8242C16.9404 18.5932 16.8174 18.3846 16.6358 18.2354C16.4543 18.0862 16.2259 18.006 15.9909 18.0087C15.7559 18.0115 15.5295 18.0972 15.3515 18.2506C15.1735 18.4041 15.0554 18.6154 15.0181 18.8474L14.0403 25.4973C13.9446 26.1585 13.5961 26.7568 13.0682 27.1663C12.5404 27.5758 11.8743 27.7647 11.21 27.6931L5.32229 27.0806C4.97441 27.0431 4.63769 26.9358 4.33231 26.765C4.02694 26.5942 3.75922 26.3635 3.54522 26.0867C3.33121 25.8099 3.17533 25.4927 3.08694 25.1542C2.99854 24.8157 2.97945 24.4628 3.03081 24.1167L5.06914 10.7278C5.25766 9.53843 5.75978 8.42081 6.52379 7.49H12.6914C12.0064 8.76958 11.646 10.1978 11.6419 11.6492C11.6433 11.715 11.6577 11.7799 11.6843 11.8402C11.7109 11.9005 11.7491 11.9549 11.7968 12.0003C11.8444 12.0458 11.9006 12.0814 11.9621 12.105C12.0235 12.1287 12.0891 12.14 12.1549 12.1382C12.2207 12.1365 12.2856 12.1218 12.3457 12.0949C12.4058 12.068 12.4601 12.0295 12.5053 11.9816C12.5505 11.9337 12.5858 11.8774 12.6091 11.8158C12.6325 11.7542 12.6435 11.6886 12.6414 11.6228C12.6662 10.1643 13.0767 8.73841 13.8312 7.49H18.1391C18.5201 8.21055 18.8276 8.96767 19.0568 9.74989C18.9294 9.55111 18.7377 9.40193 18.5137 9.32715C18.2898 9.25237 18.0469 9.25648 17.8256 9.33882C17.6043 9.42115 17.4178 9.57673 17.2972 9.77972C17.1765 9.98271 17.1289 10.2209 17.1624 10.4546L17.3064 11.4138L16.4551 11.8499C16.2672 11.9497 16.1153 12.1059 16.0206 12.2965C15.9259 12.487 15.8931 12.7024 15.927 12.9125C15.9608 13.1226 16.0595 13.3169 16.2093 13.468C16.359 13.6192 16.5523 13.7198 16.7621 13.7556L17.7186 13.9151L17.8704 14.8589C17.907 15.0686 18.0084 15.2615 18.1603 15.4107C18.3122 15.5598 18.5069 15.6576 18.7172 15.6905C18.9275 15.7233 19.1428 15.6894 19.3329 15.5937C19.523 15.4979 19.6784 15.345 19.7772 15.1565L20.2249 14.2959L21.1692 14.4431C21.38 14.473 21.5948 14.4361 21.7835 14.3377C21.9722 14.2393 22.1254 14.0844 22.2216 13.8945C22.3178 13.7047 22.3522 13.4895 22.32 13.2791C22.2877 13.0687 22.1904 12.8737 22.0417 12.7214L21.3611 12.03L21.7937 11.177C21.887 10.9858 21.9182 10.7702 21.8828 10.5603C21.8475 10.3505 21.7474 10.157 21.5966 10.0069C21.4457 9.85685 21.2517 9.7577 21.0418 9.72337C20.8318 9.68903 20.6163 9.72124 20.4255 9.81548L20.1292 9.96348C19.9334 9.10791 19.6392 8.27788 19.2525 7.48998H25.6409C25.6409 7.48998 26.8284 9.51537 26.9856 10.5976L28.9778 24.1509C29.0547 24.6887 28.9181 25.2353 28.5973 25.6737C28.2765 26.1122 27.7969 26.4078 27.261 26.4973ZM20.6585 12.7556L21.3235 13.4548L20.3792 13.3079C19.4867 13.152 19.2064 14.0966 18.8577 14.7002L18.7059 13.7568C18.6724 13.545 18.5725 13.3492 18.4206 13.1979C18.2687 13.0465 18.0726 12.9473 17.8606 12.9146L16.9114 12.7397L17.763 12.3037C17.9537 12.206 18.1085 12.0504 18.2052 11.8593C18.302 11.6681 18.3357 11.4512 18.3016 11.2397L18.1668 10.2764C18.4205 10.4979 18.9141 11.1243 19.2578 11.1924C19.2103 11.6151 19.1613 12.1 19.722 12.136C20.2899 12.1256 20.2591 11.459 20.2549 11.0343L20.9016 10.7251L20.469 11.5781C20.372 11.7692 20.3382 11.9861 20.3722 12.1977C20.4062 12.4093 20.5065 12.6046 20.6585 12.7556Z" fill="#1D2939"/>
<path d="M25.0393 19.5326L25.4704 18.6801C25.5639 18.4889 25.5952 18.2732 25.56 18.0634C25.5247 17.8535 25.4247 17.6599 25.2739 17.5097C25.1231 17.3596 24.929 17.2604 24.719 17.226C24.509 17.1917 24.2935 17.224 24.1027 17.3183L23.235 17.7514L22.5573 17.0771C22.4043 16.9292 22.2089 16.8328 21.9984 16.8016C21.7879 16.7703 21.5729 16.8057 21.3835 16.9028C21.1941 16.9998 21.0399 17.1537 20.9423 17.3429C20.8448 17.532 20.8089 17.7469 20.8396 17.9575L20.9836 18.9167L20.133 19.3527C19.9423 19.4504 19.7874 19.606 19.6906 19.7972C19.5938 19.9883 19.5599 20.2052 19.5939 20.4168C19.6279 20.6283 19.728 20.8237 19.8798 20.9749C20.0316 21.1261 20.2274 21.2254 20.4391 21.2585L21.3962 21.4176L21.5475 22.3622C21.5844 22.5719 21.686 22.7648 21.838 22.9138C21.99 23.0628 22.1848 23.1606 22.3952 23.1933C22.6055 23.226 22.8209 23.1921 23.011 23.0963C23.2011 23.0005 23.3564 22.8476 23.4553 22.659L23.902 21.7987L24.8469 21.946C25.0576 21.9759 25.2725 21.939 25.4613 21.8406C25.65 21.7422 25.8033 21.5872 25.8995 21.3972C25.9956 21.2073 26.0299 20.992 25.9976 20.7816C25.9652 20.5712 25.8677 20.3762 25.7189 20.224L25.0393 19.5326ZM24.0563 20.8107C23.8446 20.7781 23.628 20.8132 23.4373 20.9108C23.2467 21.0085 23.0916 21.1638 22.9943 21.3546L22.5349 22.2033L22.3835 21.2587C22.3497 21.047 22.2496 20.8515 22.0976 20.7004C21.9456 20.5492 21.7496 20.4501 21.5378 20.4174L20.5891 20.2426L21.4396 19.8068C21.6307 19.7095 21.7859 19.5539 21.8828 19.3626C21.9797 19.1714 22.0133 18.9542 21.9787 18.7426C21.9887 18.752 21.8241 17.7428 21.8522 17.786L22.529 18.4596C23.1496 19.1064 23.9482 18.513 24.5783 18.2281L24.1472 19.0802C23.7245 19.8686 24.5354 20.4475 25.0012 20.9577L24.0563 20.8107Z" fill="#1D2939"/>
<path d="M11.1328 17.074L11.5646 16.2214C11.6581 16.0302 11.6894 15.8145 11.6541 15.6047C11.6188 15.3948 11.5187 15.2012 11.3679 15.0511C11.2171 14.9009 11.0231 14.8017 10.813 14.7674C10.603 14.7331 10.3875 14.7653 10.1967 14.8596L9.32905 15.2927L8.65155 14.6184C8.49855 14.4705 8.3031 14.3741 8.0926 14.3429C7.88209 14.3116 7.66708 14.347 7.47769 14.444C7.2883 14.5411 7.13403 14.695 7.0365 14.8841C6.93896 15.0733 6.90305 15.2882 6.9338 15.4988L7.07759 16.458L6.22651 16.894C6.03583 16.9918 5.881 17.1474 5.78421 17.3386C5.68742 17.5298 5.65364 17.7468 5.68771 17.9583C5.72178 18.1699 5.82195 18.3653 5.97387 18.5164C6.12579 18.6676 6.32165 18.7668 6.5334 18.7997L7.48994 18.9592L7.64179 19.903C7.67846 20.1127 7.77985 20.3057 7.93175 20.4548C8.08364 20.6039 8.27842 20.7018 8.48875 20.7346C8.69908 20.7674 8.9144 20.7336 9.10452 20.6378C9.29463 20.542 9.44998 20.3891 9.54879 20.2006L9.99629 19.34L10.9406 19.4872C11.1513 19.517 11.3661 19.48 11.5547 19.3816C11.7434 19.2831 11.8965 19.1281 11.9927 18.9383C12.0888 18.7484 12.1232 18.5333 12.091 18.3229C12.0587 18.1126 11.9615 17.9176 11.8129 17.7653L11.1328 17.074ZM10.1503 18.352C9.93862 18.3185 9.72175 18.3531 9.53098 18.4509C9.34021 18.5486 9.18539 18.7043 9.08884 18.8957L8.62912 19.7443L8.47726 18.8005C8.44359 18.5887 8.34359 18.3932 8.19166 18.2419C8.03972 18.0906 7.84369 17.9914 7.63181 17.9587L6.68283 17.7839L7.5339 17.3479C7.7248 17.2504 7.87984 17.0949 7.97667 16.9037C8.0735 16.7125 8.10714 16.4954 8.07272 16.2839C8.08276 16.2936 7.91778 15.283 7.946 15.3273L8.62326 16.0012C9.24337 16.647 10.0433 16.054 10.6726 15.7694L10.2409 16.6218C9.81888 17.4109 10.6291 17.9886 11.0947 18.499L10.1503 18.352Z" fill="#1D2939"/>
</svg>
